<?xml version="1.0" standalone="no"?>
<!DOCTYPE svg PUBLIC "-//W3C//DTD SVG 20010904//EN"
 "http://www.w3.org/TR/2001/REC-SVG-20010904/DTD/svg10.dtd">
<svg version="1.0" xmlns="http://www.w3.org/2000/svg"
 width="450.000000pt" height="337.000000pt" viewBox="0 0 450.000000 337.000000"
 preserveAspectRatio="xMidYMid meet">
<metadata>
Created by potrace 1.10, written by Peter Selinger 2001-2011
</metadata>
<g transform="translate(0.000000,337.000000) scale(0.100000,-0.100000)"
fill="#000000" stroke="none">
<path d="M4130 3043 c-46 -9 -141 -59 -545 -285 l-400 -225 -3 -171 -2 -171
30 -35 c42 -47 135 -115 325 -236 175 -111 203 -133 216 -169 13 -33 -12 -67
-58 -80 -21 -6 -89 -11 -150 -11 l-113 0 0 -124 c0 -69 4 -127 8 -130 17 -10
196 16 251 36 76 28 152 105 177 179 41 123 11 253 -78 340 -52 51 -209 177
-296 238 l-62 44 20 23 21 22 -48 18 c-26 9 -67 25 -91 34 l-44 16 64 34 c104
55 343 191 507 290 171 102 229 130 272 130 24 0 29 -4 29 -25 0 -60 -99 -202
-252 -361 l-78 -81 26 -11 c14 -7 31 -12 38 -12 12 0 115 109 180 189 91 114
181 272 210 370 23 79 21 108 -13 142 -30 29 -68 35 -141 22z"/>
<path d="M2990 2849 c-46 -52 -93 -104 -103 -116 -18 -21 -18 -23 8 -109 26
-86 27 -93 35 -498 9 -408 15 -480 45 -553 42 -99 145 -151 333 -166 l62 -5 0
128 0 127 -50 6 c-76 9 -125 27 -165 59 -73 61 -69 29 -75 657 l-5 564 -85
-94z"/>
<path d="M1902 2607 c-50 -51 -92 -96 -92 -101 0 -16 183 -196 200 -196 8 0
47 32 85 70 38 39 74 70 80 70 6 0 42 -31 80 -70 38 -38 74 -70 80 -70 6 0 42
32 80 70 38 39 74 70 80 70 6 0 42 -31 80 -70 38 -38 74 -70 80 -70 13 0 195
182 195 195 0 13 -182 195 -195 195 -5 0 -53 -44 -107 -97 -54 -53 -101 -94
-105 -90 -4 5 -2 16 5 25 7 9 15 23 18 30 8 16 -103 132 -126 132 -8 0 -58
-43 -110 -95 -83 -84 -120 -111 -120 -88 0 4 10 17 22 30 l22 23 -64 65 c-36
36 -71 65 -80 65 -8 0 -57 -42 -108 -93z"/>
<path d="M2506 2131 l-76 -110 66 -83 c73 -90 119 -177 109 -207 -8 -26 -54
-41 -147 -48 l-78 -6 0 -145 0 -145 36 6 c184 30 341 279 307 488 -9 55 -8 69
10 108 16 36 17 48 8 64 -24 38 -144 187 -151 187 -4 0 -42 -49 -84 -109z"/>
<path d="M1980 1915 c-11 -25 -41 -68 -67 -96 -72 -77 -147 -110 -306 -134
-30 -5 -37 -10 -33 -23 11 -34 26 -158 26 -215 l0 -59 33 7 c72 14 179 77 257
151 74 71 77 73 87 51 6 -13 34 -48 63 -80 60 -66 149 -114 228 -124 l52 -6 0
139 0 140 -85 11 c-47 7 -110 23 -140 37 l-54 24 15 48 c8 26 14 76 14 111 l0
63 -35 0 c-33 0 -37 -4 -55 -45z"/>
<path d="M1136 1934 c-92 -29 -182 -149 -208 -278 -20 -104 15 -202 87 -243
37 -21 53 -23 198 -23 146 0 158 -1 178 -21 31 -31 21 -90 -23 -137 -108 -114
-450 -280 -943 -457 l-200 -72 -3 -62 -3 -61 194 0 195 0 128 59 c397 183 674
376 749 521 43 82 61 312 36 447 -21 110 -129 271 -210 312 -53 28 -118 33
-175 15z"/>
<path d="M1742 1221 c-69 -24 -134 -87 -175 -171 -30 -60 -32 -72 -32 -170 0
-103 1 -109 38 -183 59 -119 145 -177 262 -177 66 0 77 12 73 82 l-3 53 -37
-3 c-145 -11 -241 208 -156 360 33 59 69 82 136 88 l57 5 3 55 c3 43 -1 57
-14 67 -25 18 -90 16 -152 -6z"/>
<path d="M3489 1220 c-101 -53 -151 -166 -151 -340 0 -232 90 -365 248 -364
114 1 192 72 229 209 23 84 17 276 -11 349 -24 61 -75 121 -125 146 -50 26
-141 26 -190 0z m145 -135 c32 -34 46 -96 46 -199 0 -158 -31 -236 -94 -236
-41 0 -63 23 -82 86 -19 63 -18 226 1 292 24 81 83 107 129 57z"/>
<path d="M2080 1208 c-5 -13 -41 -158 -79 -323 -38 -165 -72 -312 -76 -327 -6
-23 -3 -28 17 -33 14 -4 44 -5 68 -3 l44 3 16 55 16 55 69 0 70 0 10 -45 c15
-66 19 -70 86 -70 46 0 61 4 66 16 5 14 -117 558 -149 662 l-10 32 -69 0 c-62
0 -70 -2 -79 -22z m99 -333 c11 -55 16 -103 13 -107 -13 -12 -57 -18 -70 -9
-12 7 -11 26 3 111 16 101 25 135 32 114 2 -5 12 -54 22 -109z"/>
<path d="M2440 882 c0 -389 -5 -362 70 -362 73 0 70 -8 70 198 0 108 4 182 9
177 5 -6 39 -86 76 -178 38 -93 75 -175 82 -183 19 -18 107 -19 122 0 8 9 11
110 9 352 l-3 339 -67 3 c-59 3 -68 1 -69 -15 -1 -10 -1 -85 0 -168 3 -228 5
-230 -132 100 l-33 80 -67 3 -67 3 0 -349z"/>
<path d="M2906 1214 c-10 -26 -7 -69 7 -87 8 -11 30 -17 72 -19 l60 -3 3 -285
c2 -212 5 -286 15 -292 20 -13 104 -9 116 5 7 9 12 107 13 293 l3 279 65 5 65
5 0 55 0 55 -206 3 c-182 2 -207 0 -213 -14z"/>
</g>
</svg>
